<?xml version="1.0" standalone="no"?>
<!DOCTYPE svg PUBLIC "-//W3C//DTD SVG 20010904//EN"
 "http://www.w3.org/TR/2001/REC-SVG-20010904/DTD/svg10.dtd">
<svg version="1.0" xmlns="http://www.w3.org/2000/svg"
 width="331.000000pt" height="331.000000pt" viewBox="0 0 331.000000 331.000000"
 preserveAspectRatio="xMidYMid meet">
<metadata>
Created by potrace 1.11, written by Peter Selinger 2001-2013
</metadata>
<g transform="translate(0.000000,331.000000) scale(0.100000,-0.100000)"
fill="#000000" stroke="none">
<path d="M590 2647 c-3 -3 -21 -7 -40 -10 -165 -24 -338 -154 -416 -312 -88
-181 -75 -392 35 -554 l40 -58 -37 -39 c-80 -84 -140 -193 -161 -289 -16 -75
-7 -219 19 -294 42 -126 152 -260 266 -327 55 -33 170 -80 216 -89 71 -15 243
-14 308 0 157 35 313 129 398 239 15 19 23 24 26 15 3 -8 14 -48 26 -89 l21
-75 252 2 c139 0 257 1 263 2 6 1 17 22 24 49 7 26 23 88 36 137 93 350 166
627 169 646 5 26 22 46 22 27 0 -7 21 -92 47 -188 26 -96 49 -182 51 -190 4
-18 67 -259 90 -345 9 -33 20 -74 25 -91 4 -18 10 -36 13 -40 4 -7 445 -11
514 -5 7 1 17 18 23 38 6 21 28 101 50 178 21 77 127 452 234 834 108 382 197
701 198 709 3 13 -36 15 -265 16 -148 1 -273 -2 -279 -5 -8 -5 -49 -148 -63
-222 -2 -9 -6 -21 -9 -25 -3 -5 -7 -19 -9 -33 -7 -36 -148 -573 -152 -577 -3
-4 -14 25 -20 56 -2 10 -45 176 -95 368 -51 192 -97 369 -104 393 l-11 45
-238 0 c-132 1 -243 -1 -248 -4 -7 -5 -30 -80 -44 -142 -2 -10 -15 -59 -29
-110 -14 -51 -38 -145 -55 -208 -73 -284 -103 -395 -106 -399 -2 -1 -8 14 -14
35 -5 22 -34 134 -65 249 -93 356 -138 529 -143 553 -6 25 5 24 -193 26 -138
1 -147 2 -190 28 -74 43 -166 69 -275 75 -55 3 -102 3 -105 0z m164 -390 c51
-25 83 -62 100 -117 18 -61 11 -115 -22 -170 -69 -112 -219 -123 -301 -23
-133 161 39 400 223 310z m31 -773 c129 -53 187 -205 122 -316 -52 -89 -143
-134 -255 -126 -281 20 -334 359 -70 449 60 20 145 17 203 -7z"/>
<path d="M3143 970 c-54 -33 -71 -89 -44 -147 15 -33 63 -63 101 -63 55 0 110
57 110 115 0 83 -97 138 -167 95z m112 -32 c32 -29 39 -62 19 -104 -43 -91
-185 -38 -160 60 16 65 90 88 141 44z"/>
<path d="M3174 932 c-15 -10 -12 -122 4 -122 6 0 12 10 13 23 l0 22 11 -22 c6
-13 17 -23 25 -23 17 0 16 10 -2 34 -12 16 -12 20 0 33 21 20 0 63 -30 63 -5
0 -15 -4 -21 -8z m36 -32 c0 -5 -4 -10 -10 -10 -5 0 -10 5 -10 10 0 6 5 10 10
10 6 0 10 -4 10 -10z"/>
</g>
</svg>
